<svg width="20" height="20" viewBox="0 0 20 20" fill="none" xmlns="http://www.w3.org/2000/svg">
<path d="M18.3315 8.7502V12.9169C18.3315 15.8335 16.6648 17.0835 14.1648 17.0835H5.83146C3.33146 17.0835 1.66479 15.8335 1.66479 12.9169V7.08354C1.66479 4.16687 3.33146 2.91687 5.83146 2.91687H11.6648" stroke="white" stroke-width="1.5" stroke-miterlimit="10" stroke-linecap="round" stroke-linejoin="round"/>
<path d="M5.83521 7.5L8.44354 9.58333C9.30188 10.2667 10.7102 10.2667 11.5685 9.58333L12.5519 8.8" stroke="white" stroke-width="1.5" stroke-miterlimit="10" stroke-linecap="round" stroke-linejoin="round"/>
<path d="M16.2481 6.66667C17.3987 6.66667 18.3315 5.73393 18.3315 4.58333C18.3315 3.43274 17.3987 2.5 16.2481 2.5C15.0975 2.5 14.1648 3.43274 14.1648 4.58333C14.1648 5.73393 15.0975 6.66667 16.2481 6.66667Z" stroke="white" stroke-width="1.5" stroke-miterlimit="10" stroke-linecap="round" stroke-linejoin="round"/>
</svg>
